<?xml version="1.0" encoding="UTF-8"?>
<svg width="1200pt" height="1200pt" version="1.1" viewBox="0 0 1200 1200" xmlns="http://www.w3.org/2000/svg">
 <path d="m305.9 725.23c-21.68 30.023-53.527 48.789-83.105 48.789-11.727 0-23.203-2.8633-34.113-8.4922-38.301-19.656-75.246-65.977-98.82-124.05-25.301-62.223-39.691-134.52-39.809-197.93 29.883 8.6914 78.434 28.938 94.852 37.039 40.355 19.852 79.672 39.504 117 61.824 41.586 24.891 64.906 45.434 69.008 82.867 3.8867 35.355-5.4688 72.789-25.012 99.949zm-23.863-216.69c-38.598-23.109-78.688-43.16-119.79-63.406-10.602-5.2344-98.074-44.348-130.79-45.039-10.211-0.097656-19.496 8-20.098 18.57-4.1797 75.059 11.156 161.78 42.078 237.73 27.043 66.57 70.898 120.5 117.34 144.39 16.516 8.3945 34.012 12.742 52.012 12.742h0.011719c42.609 0 85.602-24.395 114.99-65.188 25.488-35.355 37.23-81.875 32.234-127.41-6.4922-59.062-47.016-87.902-87.984-112.39z" fill="#5129d4" fill-rule="evenodd"/>
 <path d="m283.67 605.63c-10.801 1.1875-18.59 10.863-17.41 21.73 1.9688 17.875-2.7227 36.738-12.52 50.367-12.699 17.582-34.684 30.719-55.242 20.148-9.6875-4.9375-21.531-1.0859-26.469 8.5938-4.9453 9.6797-1.1094 21.629 8.5586 26.566 10.535 5.4336 21.777 8 33.098 8 26.461 0 53.254-14.219 71.934-40.195 15.598-21.629 22.789-49.977 19.758-77.828-1.1875-10.766-10.996-18.668-21.707-17.383" fill="#5129d4" fill-rule="evenodd"/>
 <path d="m1083.3 654.91c-62.777 87.504-162.36 128.2-195.08 141.53l-5.5938 2.2695c-42.207 17.68-96.141 27.457-151.87 27.457-51.414 0-98.496-8.3945-129.21-23.012-78.695-37.531-128.72-113.78-127.45-194.37 0.019532-1.1836 0.24609-2.3711 2.7812-4.1484 53.559-37.629 123.36-59.16 184.94-78.223 88.605-27.355 173.18-44.344 251.4-50.566 19.012-1.4805 36.293-2.2695 52.828-2.2695 29.281 0 55.645 2.3672 80.598 7.1094 40.938 7.8008 83.113 19.652 85.543 48.789 3.8164 46.027-26.066 93.629-48.883 125.43zm-29.344-213.04c-42.531-8.0977-87.473-9.875-143.84-5.4297-81.082 6.418-168.5 24-259.87 52.246-64.355 19.852-137.3 42.371-195.91 83.555-12.395 8.6914-19.348 21.531-19.586 35.953-1.5039 96 57.348 186.57 149.93 230.62 35.793 17.086 89.035 26.863 146.07 26.863 60.816 0 120.13-10.766 167.02-30.422l5.2734-2.1719c35.312-14.418 142.79-58.371 212.18-155.06 26.461-36.84 61.074-92.738 56.164-151.8-5.2344-63.012-83.863-77.926-117.43-84.348z" fill="#5129d4" fill-rule="evenodd"/>
 <path d="m1069.2 509.33c-10.82 1.0859-18.75 10.668-17.727 21.531 3.6914 39.012-25.711 80.102-48.145 107.55-59.266 72.691-153.71 104.3-189.26 116.15-4.7031 1.582-8.5469 2.8672-11.371 3.9531-10.199 3.7539-15.434 15.109-11.695 25.383 2.9219 7.8984 10.457 12.938 18.473 12.938 2.2422 0 4.543-0.39453 6.7695-1.2852 2.5547-0.88672 6.0195-2.0742 10.258-3.457 38.508-12.938 140.79-47.109 207.25-128.59 26.844-32.891 61.949-82.867 56.895-136.4-1.0352-10.766-10.535-18.766-21.453-17.777" fill="#5129d4" fill-rule="evenodd"/>
 <path d="m1184.8 424.79c-3.082-1.9727-3.6016-2.2695-4.2617-2.5664l-1.5039-0.98828c-81.824-50.668-182.24-67.555-298.54-49.875-122.95 18.664-285.46 69.234-363.55 93.629-14.574 4.543-26.566 8.2969-35.262 10.863-41.961 12.543-96.109 23.703-142.83-1.3828-4.0352-2.0742-9.7969-5.332-16.938-9.2852-37.73-20.738-107.95-59.555-168.98-84.738-38.016-15.703-78.695-31.902-121.28-42.273-10.523-2.4688-21.195 3.9531-23.754 14.52-2.5664 10.668 3.9141 21.332 14.469 23.902 39.895 9.7773 78.984 25.281 115.59 40.395 58.977 24.395 130.58 63.902 164.99 82.863 7.3281 4.0508 13.242 7.3086 17.383 9.4805 27.086 14.52 55.148 19.754 82.328 19.754 32.371 0 63.5-7.4062 90.207-15.406 8.8203-2.5703 20.961-6.4219 35.723-10.965 77.176-24.098 237.76-74.074 357.77-92.344 106.78-16.098 198.29-1.1875 272.04 44.543l2.3984 1.4805c0.46484 0.19922 0.83594 0.49609 3.0312 1.8789 9.207 5.8242 21.344 2.9609 27.125-6.2227 5.7969-9.2852 3.0312-21.434-6.1641-27.262" fill="#5129d4" fill-rule="evenodd"/>
</svg>
